<svg xmlns="http://www.w3.org/2000/svg" viewBox="0 0 105.28 81"><title>sth</title><g id="Layer_2" data-name="Layer 2"><g id="Layer_1-2" data-name="Layer 1"><path d="M19.72,56a9.29,9.29,0,0,1-2.9,1.5,10.67,10.67,0,0,1-3.23.51,11.43,11.43,0,0,1-5.8-1.41A10.29,10.29,0,0,1,4,52.86L0,55.68a14.1,14.1,0,0,0,6,4.83A19,19,0,0,0,13.38,62a15.58,15.58,0,0,0,5-.84,15.21,15.21,0,0,0,4.5-2.4,11.93,11.93,0,0,0,3.24-3.87,10.87,10.87,0,0,0,1.23-5.19,10.09,10.09,0,0,0-1.62-6.06,12.52,12.52,0,0,0-4-3.57,24.1,24.1,0,0,0-5.25-2.16,44.61,44.61,0,0,1-5.25-1.83,12.82,12.82,0,0,1-4-2.61A6,6,0,0,1,5.58,29a7.26,7.26,0,0,1,.78-3.45,6.89,6.89,0,0,1,2.07-2.4,9.09,9.09,0,0,1,2.91-1.38,12.27,12.27,0,0,1,3.3-.45,9.32,9.32,0,0,1,8.22,4.14l3.78-2.94a14.1,14.1,0,0,0-5.46-4,18,18,0,0,0-6.54-1.14,17.85,17.85,0,0,0-5,.72,13.28,13.28,0,0,0-4.41,2.22,11.07,11.07,0,0,0-3.12,3.78A11.55,11.55,0,0,0,.9,29.4a11.34,11.34,0,0,0,.93,4.89,9.54,9.54,0,0,0,2.46,3.24,13.87,13.87,0,0,0,3.48,2.13q2,.84,4,1.5t4,1.32a15.56,15.56,0,0,1,3.48,1.65,8,8,0,0,1,2.46,2.46,6.78,6.78,0,0,1,.93,3.69,6.43,6.43,0,0,1-.84,3.3A8.27,8.27,0,0,1,19.72,56Zm31,4.89V22.38H64.92v-4H32.16v4H46.38V60.9ZM101,36.84H77.8V18.42H73.48V60.9H77.8V40.8H101V60.9h4.32V18.42H101ZM.9,81H105.28V77H.9ZM.9,0V4H105.28V0Z"/></g></g></svg>