<svg xmlns="http://www.w3.org/2000/svg" viewBox="0 0 969.59 81"><title>sth-full-lines</title><g id="Layer_2" data-name="Layer 2"><g id="Layer_1-2" data-name="Layer 1"><path d="M22.86,25.44a9.32,9.32,0,0,0-8.22-4.14,12.27,12.27,0,0,0-3.3.45,9.09,9.09,0,0,0-2.91,1.38,6.89,6.89,0,0,0-2.07,2.4A7.26,7.26,0,0,0,5.58,29,6,6,0,0,0,7.2,33.45a12.82,12.82,0,0,0,4,2.61,44.61,44.61,0,0,0,5.25,1.83,24.1,24.1,0,0,1,5.25,2.16,12.52,12.52,0,0,1,4,3.57,10.09,10.09,0,0,1,1.62,6.06,10.87,10.87,0,0,1-1.23,5.19,11.93,11.93,0,0,1-3.24,3.87,15.21,15.21,0,0,1-4.5,2.4,15.58,15.58,0,0,1-5,.84A19,19,0,0,1,6,60.51a14.1,14.1,0,0,1-6-4.83l4-2.82a10.29,10.29,0,0,0,3.83,3.75A11.43,11.43,0,0,0,13.59,58a10.67,10.67,0,0,0,3.23-.51,9.29,9.29,0,0,0,2.9-1.5,8.27,8.27,0,0,0,2.12-2.43,6.43,6.43,0,0,0,.84-3.3,6.78,6.78,0,0,0-.93-3.69,8,8,0,0,0-2.46-2.46,15.56,15.56,0,0,0-3.48-1.65q-2-.66-4-1.32t-4-1.5a13.87,13.87,0,0,1-3.48-2.13,9.54,9.54,0,0,1-2.46-3.24A11.34,11.34,0,0,1,.9,29.4a11.55,11.55,0,0,1,1.17-5.34,11.07,11.07,0,0,1,3.12-3.78A13.28,13.28,0,0,1,9.6,18.06a17.85,17.85,0,0,1,5-.72,18,18,0,0,1,6.54,1.14,14.1,14.1,0,0,1,5.46,4Z"/><path d="M36,60.9H31L49.44,18.42h4.2L72.12,60.9h-5L62.4,49.74H40.68Zm6.3-15.12H60.72L51.54,23.46Z"/><path d="M112.2,54.18a16.46,16.46,0,0,1-2.67,3.06,16.88,16.88,0,0,1-3.63,2.49,20.7,20.7,0,0,1-4.41,1.65,20.35,20.35,0,0,1-5,.6,22.71,22.71,0,0,1-8.79-1.68A21.08,21.08,0,0,1,76,48.6a23.26,23.26,0,0,1-1.68-8.94A23.26,23.26,0,0,1,76,30.72,21.08,21.08,0,0,1,87.69,19a22.71,22.71,0,0,1,8.79-1.68,21.47,21.47,0,0,1,7.92,1.56,16,16,0,0,1,6.78,5.16l-3.78,2.82a10.29,10.29,0,0,0-1.8-2A13.1,13.1,0,0,0,103,23a16.18,16.18,0,0,0-3.15-1.26,12.18,12.18,0,0,0-3.36-.48,17.23,17.23,0,0,0-7.32,1.5,16.62,16.62,0,0,0-5.49,4,17.69,17.69,0,0,0-3.45,5.85,21,21,0,0,0,0,14,17.69,17.69,0,0,0,3.45,5.85,16.62,16.62,0,0,0,5.49,4A17.23,17.23,0,0,0,96.48,58a18.58,18.58,0,0,0,3.33-.3,13.83,13.83,0,0,0,3.24-1,12.24,12.24,0,0,0,3-2,14.47,14.47,0,0,0,2.61-3.09Z"/><path d="M122.46,18.42h4.32V36.84h23.16V18.42h4.32V60.9h-4.32V40.8H126.78V60.9h-4.32Z"/><path d="M166.86,60.9h-5L180.3,18.42h4.2L203,60.9h-5l-4.68-11.16H171.54Zm6.3-15.12h18.42L182.4,23.46Z"/><path d="M241.44,60.9h-4.32V22.38H222.9v-4h32.76v4H241.44Z"/><path d="M259.26,60.9h-5L272.7,18.42h4.2L295.38,60.9h-5l-4.68-11.16H263.94Zm6.3-15.12H284L274.8,23.46Z"/><path d="M323,25.44a9.32,9.32,0,0,0-8.22-4.14,12.27,12.27,0,0,0-3.3.45,9.09,9.09,0,0,0-2.91,1.38,6.89,6.89,0,0,0-2.07,2.4,7.26,7.26,0,0,0-.78,3.45,6,6,0,0,0,1.62,4.47,12.82,12.82,0,0,0,4,2.61,44.61,44.61,0,0,0,5.25,1.83,24.1,24.1,0,0,1,5.25,2.16,12.52,12.52,0,0,1,4,3.57,10.09,10.09,0,0,1,1.62,6.06,10.87,10.87,0,0,1-1.23,5.19,11.93,11.93,0,0,1-3.24,3.87,15.21,15.21,0,0,1-4.5,2.4,15.58,15.58,0,0,1-5,.84,19,19,0,0,1-7.41-1.47,14.1,14.1,0,0,1-6-4.83l4-2.82A10.26,10.26,0,0,0,308,56.61,11.47,11.47,0,0,0,313.77,58a10.72,10.72,0,0,0,3.23-.51,9.4,9.4,0,0,0,2.9-1.5A8.42,8.42,0,0,0,322,53.58a6.43,6.43,0,0,0,.84-3.3,6.78,6.78,0,0,0-.93-3.69,8,8,0,0,0-2.46-2.46A15.56,15.56,0,0,0,316,42.48q-2-.66-4-1.32t-4-1.5a13.87,13.87,0,0,1-3.48-2.13A9.54,9.54,0,0,1,302,34.29a11.34,11.34,0,0,1-.93-4.89,11.55,11.55,0,0,1,1.17-5.34,11.07,11.07,0,0,1,3.12-3.78,13.28,13.28,0,0,1,4.41-2.22,18.73,18.73,0,0,1,11.58.42,14.1,14.1,0,0,1,5.46,4Z"/><path d="M359.4,25.44a9.32,9.32,0,0,0-8.22-4.14,12.27,12.27,0,0,0-3.3.45A9.09,9.09,0,0,0,345,23.13a6.89,6.89,0,0,0-2.07,2.4,7.26,7.26,0,0,0-.78,3.45,6,6,0,0,0,1.62,4.47,12.82,12.82,0,0,0,4,2.61A44.61,44.61,0,0,0,353,37.89a24.1,24.1,0,0,1,5.25,2.16,12.52,12.52,0,0,1,4,3.57,10.09,10.09,0,0,1,1.62,6.06,10.87,10.87,0,0,1-1.23,5.19,11.93,11.93,0,0,1-3.24,3.87,15.21,15.21,0,0,1-4.5,2.4,15.58,15.58,0,0,1-5,.84,19,19,0,0,1-7.41-1.47,14.1,14.1,0,0,1-6-4.83l4-2.82a10.22,10.22,0,0,0,3.83,3.75,11.41,11.41,0,0,0,5.8,1.41,10.72,10.72,0,0,0,3.23-.51,9.4,9.4,0,0,0,2.9-1.5,8.42,8.42,0,0,0,2.12-2.43,6.43,6.43,0,0,0,.84-3.3,6.78,6.78,0,0,0-.93-3.69,8,8,0,0,0-2.46-2.46,15.56,15.56,0,0,0-3.48-1.65q-2-.66-4-1.32t-4-1.5a13.87,13.87,0,0,1-3.48-2.13,9.54,9.54,0,0,1-2.46-3.24,11.34,11.34,0,0,1-.93-4.89,11.55,11.55,0,0,1,1.17-5.34,11.07,11.07,0,0,1,3.12-3.78,13.28,13.28,0,0,1,4.41-2.22,18.73,18.73,0,0,1,11.58.42,14.1,14.1,0,0,1,5.46,4Z"/><path d="M380,60.9h-4.32V18.42H380Z"/><path d="M401.22,56.94H421v4H396.9V18.42h4.32Z"/><path d="M470.1,39.66a23.26,23.26,0,0,1-1.68,8.94,21.08,21.08,0,0,1-11.67,11.7,23.84,23.84,0,0,1-17.58,0A21.08,21.08,0,0,1,427.5,48.6a23.26,23.26,0,0,1-1.68-8.94,23.26,23.26,0,0,1,1.68-8.94A21.08,21.08,0,0,1,439.17,19a23.84,23.84,0,0,1,17.58,0,21.08,21.08,0,0,1,11.67,11.7A23.26,23.26,0,0,1,470.1,39.66Zm-4.68,0a20.46,20.46,0,0,0-1.2-7,17.69,17.69,0,0,0-3.45-5.85,16.62,16.62,0,0,0-5.49-4,18.61,18.61,0,0,0-14.64,0,16.62,16.62,0,0,0-5.49,4,17.69,17.69,0,0,0-3.45,5.85,21,21,0,0,0,0,14,17.69,17.69,0,0,0,3.45,5.85,16.62,16.62,0,0,0,5.49,4,18.61,18.61,0,0,0,14.64,0,16.62,16.62,0,0,0,5.49-4,17.69,17.69,0,0,0,3.45-5.85A20.46,20.46,0,0,0,465.42,39.66Z"/><path d="M499,18.42h4.32V36.84H526.5V18.42h4.32V60.9H526.5V40.8H503.34V60.9H499Z"/><path d="M585.54,39.66a23.26,23.26,0,0,1-1.68,8.94,21.08,21.08,0,0,1-11.67,11.7,23.84,23.84,0,0,1-17.58,0,21.08,21.08,0,0,1-11.67-11.7,23.26,23.26,0,0,1-1.68-8.94,23.26,23.26,0,0,1,1.68-8.94A21.08,21.08,0,0,1,554.61,19a23.84,23.84,0,0,1,17.58,0,21.08,21.08,0,0,1,11.67,11.7A23.26,23.26,0,0,1,585.54,39.66Zm-4.68,0a20.46,20.46,0,0,0-1.2-7,17.69,17.69,0,0,0-3.45-5.85,16.62,16.62,0,0,0-5.49-4,18.61,18.61,0,0,0-14.64,0,16.62,16.62,0,0,0-5.49,4,17.69,17.69,0,0,0-3.45,5.85,21,21,0,0,0,0,14,17.69,17.69,0,0,0,3.45,5.85,16.62,16.62,0,0,0,5.49,4,18.61,18.61,0,0,0,14.64,0,16.62,16.62,0,0,0,5.49-4,17.69,17.69,0,0,0,3.45-5.85A20.46,20.46,0,0,0,580.86,39.66Z"/><path d="M600.3,56.94H623v4H596V18.42h26.34v4h-22V36.84h20.58v4H600.3Z"/><path d="M668.33,54.18a16.39,16.39,0,0,1-2.66,3.06A17.39,17.39,0,0,1,662,59.73a21,21,0,0,1-4.42,1.65,20.27,20.27,0,0,1-5,.6,22.64,22.64,0,0,1-8.79-1.68,21,21,0,0,1-11.67-11.7,23.07,23.07,0,0,1-1.69-8.94,23.07,23.07,0,0,1,1.69-8.94A21,21,0,0,1,643.83,19a22.64,22.64,0,0,1,8.79-1.68,21.51,21.51,0,0,1,7.92,1.56,16,16,0,0,1,6.77,5.16l-3.77,2.82a10.7,10.7,0,0,0-1.81-2,13.1,13.1,0,0,0-2.61-1.8A16.18,16.18,0,0,0,656,21.78a12.16,12.16,0,0,0-3.35-.48,17.27,17.27,0,0,0-7.33,1.5,16.62,16.62,0,0,0-5.49,4,17.69,17.69,0,0,0-3.45,5.85,21.12,21.12,0,0,0,0,14,17.69,17.69,0,0,0,3.45,5.85,16.62,16.62,0,0,0,5.49,4,17.27,17.27,0,0,0,7.33,1.5,18.74,18.74,0,0,0,3.33-.3,14.13,14.13,0,0,0,3.24-1,12.63,12.63,0,0,0,3-2,14.74,14.74,0,0,0,2.6-3.09Z"/><path d="M677.39,18.42h4.32V36.84h23.17V18.42h4.31V60.9h-4.31V40.8H681.71V60.9h-4.32Z"/><path d="M742.61,25.44a9.32,9.32,0,0,0-8.22-4.14,12.27,12.27,0,0,0-3.3.45,9.09,9.09,0,0,0-2.91,1.38,6.89,6.89,0,0,0-2.07,2.4,7.26,7.26,0,0,0-.78,3.45A6,6,0,0,0,727,33.45a12.82,12.82,0,0,0,4,2.61,44.61,44.61,0,0,0,5.25,1.83,24.1,24.1,0,0,1,5.25,2.16,12.52,12.52,0,0,1,4,3.57,10.09,10.09,0,0,1,1.62,6.06,10.87,10.87,0,0,1-1.23,5.19,11.93,11.93,0,0,1-3.24,3.87,15.21,15.21,0,0,1-4.5,2.4,15.58,15.58,0,0,1-5,.84,19,19,0,0,1-7.41-1.47,14.1,14.1,0,0,1-6-4.83l4-2.82a10.37,10.37,0,0,0,3.83,3.75,11.46,11.46,0,0,0,5.8,1.41,10.63,10.63,0,0,0,3.23-.51,9.19,9.19,0,0,0,2.9-1.5,8.3,8.3,0,0,0,2.13-2.43,6.52,6.52,0,0,0,.83-3.3,6.78,6.78,0,0,0-.93-3.69A8,8,0,0,0,739,44.13a15.56,15.56,0,0,0-3.48-1.65q-1.95-.66-4-1.32t-4-1.5A13.87,13.87,0,0,1,724,37.53a9.54,9.54,0,0,1-2.46-3.24,11.34,11.34,0,0,1-.93-4.89,11.55,11.55,0,0,1,1.17-5.34,11.07,11.07,0,0,1,3.12-3.78,13.28,13.28,0,0,1,4.41-2.22,18.73,18.73,0,0,1,11.58.42,14.1,14.1,0,0,1,5.46,4Z"/><path d="M771.29,60.9H767V22.38H752.75v-4h32.76v4H771.29Z"/><path d="M798.23,56.94H821v4H793.91V18.42h26.34v4h-22V36.84h20.58v4H798.23Z"/><path d="M844.91,60.9h-4.32V22.38H826.37v-4h32.76v4H844.91Z"/><path d="M881.15,60.9h-4.32V22.38H862.61v-4h32.76v4H881.15Z"/><path d="M906.89,56.94h22.74v4H902.57V18.42h26.34v4h-22V36.84h20.58v4H906.89Z"/><path d="M945.47,60.9h-4.32V18.42h13.08q6.48,0,10.23,2.82t3.75,8.52a10.62,10.62,0,0,1-2.79,7.47q-2.79,3-8.07,3.51L969.59,60.9h-5.28L952.67,41.16h-7.2Zm0-23.7h7.68a17.28,17.28,0,0,0,4.89-.6A9.09,9.09,0,0,0,961.25,35,5.8,5.8,0,0,0,963,32.67a7.76,7.76,0,0,0,.54-2.91,7.6,7.6,0,0,0-.54-2.85,6,6,0,0,0-1.74-2.37A8.46,8.46,0,0,0,958,23a18.14,18.14,0,0,0-4.89-.57h-7.68Z"/><rect x="0.9" y="77.04" width="967.31" height="3.96"/><rect x="0.9" width="967.31" height="3.96"/></g></g></svg>