<svg xmlns="http://www.w3.org/2000/svg" viewBox="0 0 186.65 186.65"><title>sth-sq</title><g id="Layer_2" data-name="Layer 2"><g id="Layer_1-2" data-name="Layer 1"><path d="M0,0V186.65H186.65V0ZM182,182H4.7V4.7H182ZM63.06,80.76a9.47,9.47,0,0,1-3,1.41,11.73,11.73,0,0,1-8.49-.72,8.88,8.88,0,0,1-3.84-3.54l-4.32,3.54A10.84,10.84,0,0,0,46,84.18,14.11,14.11,0,0,0,49.23,86a17.84,17.84,0,0,0,3.57,1,21.26,21.26,0,0,0,3.72.33,20.75,20.75,0,0,0,5.58-.75,14.44,14.44,0,0,0,4.77-2.28,12.33,12.33,0,0,0,3.54-14.58,10.11,10.11,0,0,0-2.82-3.45A16.39,16.39,0,0,0,63.51,64q-2.31-.9-4.77-1.68a36.25,36.25,0,0,1-4.26-1.56,10.93,10.93,0,0,1-2.76-1.68,5.3,5.3,0,0,1-1.47-2,6.75,6.75,0,0,1-.45-2.55,6.48,6.48,0,0,1,.78-3.24,6.39,6.39,0,0,1,2.07-2.22,9.79,9.79,0,0,1,2.91-1.26,13.57,13.57,0,0,1,3.3-.42,10.87,10.87,0,0,1,4.38.93,7.47,7.47,0,0,1,3.36,3l4.14-3.6a13,13,0,0,0-5.31-3.87,18.87,18.87,0,0,0-6.57-1.11,18.56,18.56,0,0,0-5.4.78,14.73,14.73,0,0,0-4.62,2.31,10.94,10.94,0,0,0-4.44,9.15,11.46,11.46,0,0,0,.81,4.53,9.74,9.74,0,0,0,2.22,3.24A12.9,12.9,0,0,0,50.76,65,29.87,29.87,0,0,0,55,66.63l4.92,1.68a15.74,15.74,0,0,1,3.48,1.62,5.9,5.9,0,0,1,2,2.13,6.78,6.78,0,0,1,.66,3.21,6,6,0,0,1-.84,3.18A7.46,7.46,0,0,1,63.06,80.76Zm60.11,5.49h5V48.45h14V43.77H109.13v4.68h14ZM82,121.45h22.67v19.8h5V98.77h-5v18H82v-18H77v42.48h5Z"/></g></g></svg>