<svg xmlns="http://www.w3.org/2000/svg" viewBox="0 0 186.65 186.65"><title>sth</title><g id="Layer_2" data-name="Layer 2"><g id="Layer_1-2" data-name="Layer 1"><path d="M0,0V186.65H186.65V0ZM182,182H4.7V4.7H182ZM114.53,91.36h22.68v19.8h5V68.68h-5v18H114.53v-18h-5v42.48h5ZM63.06,105.67a9.93,9.93,0,0,1-3,1.41,11.73,11.73,0,0,1-8.49-.72,8.88,8.88,0,0,1-3.84-3.54l-4.32,3.54A10.84,10.84,0,0,0,46,109.09a14.5,14.5,0,0,0,3.21,1.8,17.84,17.84,0,0,0,3.57,1,21.26,21.26,0,0,0,3.72.33,20.75,20.75,0,0,0,5.58-.75,14.44,14.44,0,0,0,4.77-2.28,11.19,11.19,0,0,0,4.59-9.39,11.42,11.42,0,0,0-1-5.19,10.11,10.11,0,0,0-2.82-3.45,16.08,16.08,0,0,0-4.08-2.28q-2.31-.9-4.77-1.68a38.15,38.15,0,0,1-4.26-1.56A10.93,10.93,0,0,1,51.72,84a5.38,5.38,0,0,1-1.47-2,6.75,6.75,0,0,1-.45-2.55,6.48,6.48,0,0,1,.78-3.24A6.31,6.31,0,0,1,52.65,74a9.79,9.79,0,0,1,2.91-1.26,13.1,13.1,0,0,1,3.3-.42,10.7,10.7,0,0,1,4.38.93,7.42,7.42,0,0,1,3.36,3l4.14-3.6a12.86,12.86,0,0,0-5.31-3.87,19.58,19.58,0,0,0-12-.33,14.73,14.73,0,0,0-4.62,2.31,10.94,10.94,0,0,0-4.44,9.15,11.46,11.46,0,0,0,.81,4.53,9.74,9.74,0,0,0,2.22,3.24,12.9,12.9,0,0,0,3.33,2.28A31.14,31.14,0,0,0,55,91.54l4.92,1.68a15.74,15.74,0,0,1,3.48,1.62,5.9,5.9,0,0,1,2,2.13,6.78,6.78,0,0,1,.66,3.21,6,6,0,0,1-.84,3.18A7.68,7.68,0,0,1,63.06,105.67Zm23.26,5.49h5V73.36h14V68.68H72.28v4.68h14Z"/></g></g></svg>