<svg xmlns="http://www.w3.org/2000/svg" viewBox="0 0 558.86 186.78"><title>sth-full</title><g id="Layer_2" data-name="Layer 2"><g id="Layer_1-2" data-name="Layer 1"><path d="M63.06,80.83a9.93,9.93,0,0,1-3,1.41,11.73,11.73,0,0,1-8.49-.72A8.88,8.88,0,0,1,47.76,78l-4.32,3.54A10.84,10.84,0,0,0,46,84.25a14.5,14.5,0,0,0,3.21,1.8,17.84,17.84,0,0,0,3.57,1,21.26,21.26,0,0,0,3.72.33,20.75,20.75,0,0,0,5.58-.75,14.44,14.44,0,0,0,4.77-2.28A11.19,11.19,0,0,0,71.46,75a11.42,11.42,0,0,0-1-5.19,10.11,10.11,0,0,0-2.82-3.45,16.08,16.08,0,0,0-4.08-2.28q-2.31-.9-4.77-1.68a38.15,38.15,0,0,1-4.26-1.56,10.93,10.93,0,0,1-2.76-1.68,5.38,5.38,0,0,1-1.47-2,6.75,6.75,0,0,1-.45-2.55,6.48,6.48,0,0,1,.78-3.24,6.31,6.31,0,0,1,2.07-2.22,9.79,9.79,0,0,1,2.91-1.26,13.1,13.1,0,0,1,3.3-.42,10.7,10.7,0,0,1,4.38.93,7.42,7.42,0,0,1,3.36,3l4.14-3.6a12.86,12.86,0,0,0-5.31-3.87,19.58,19.58,0,0,0-12-.33,14.73,14.73,0,0,0-4.62,2.31A10.94,10.94,0,0,0,44.4,55a11.46,11.46,0,0,0,.81,4.53,9.74,9.74,0,0,0,2.22,3.24,12.9,12.9,0,0,0,3.33,2.28A31.14,31.14,0,0,0,55,66.7l4.92,1.68A15.74,15.74,0,0,1,63.36,70a5.9,5.9,0,0,1,2,2.13,6.78,6.78,0,0,1,.66,3.21,6,6,0,0,1-.84,3.18A7.68,7.68,0,0,1,63.06,80.83Zm22.5-5H106.8l4.32,10.44H117L98.94,43.84H94.2L75.48,86.32h5.7Zm10.8-25.56h.12l8.4,20.88H87.54Zm29.37,30.75a21,21,0,0,0,6.87,4.65,21.59,21.59,0,0,0,8.52,1.68,22.3,22.3,0,0,0,9.15-1.8A17.48,17.48,0,0,0,157.2,80l-3.78-3.18a15.78,15.78,0,0,1-5.34,4.41,16.47,16.47,0,0,1-13.53.15,15.63,15.63,0,0,1-5.1-3.75A17.33,17.33,0,0,1,126.12,72a19.63,19.63,0,0,1-1.2-6.93,19,19,0,0,1,1.2-6.69,17.76,17.76,0,0,1,3.36-5.64,16.31,16.31,0,0,1,5.13-3.87,14.72,14.72,0,0,1,6.51-1.44A14,14,0,0,1,147,48.73a12.13,12.13,0,0,1,4.74,3.87l4.38-3.18a15.31,15.31,0,0,0-6.69-5.1,22.62,22.62,0,0,0-8.31-1.56,21,21,0,0,0-20,13.56,23.91,23.91,0,0,0-1.59,8.76A23.63,23.63,0,0,0,121.17,74,21.43,21.43,0,0,0,125.73,81.07Zm46.53-14.55h22.68v19.8h5V43.84h-5v18H172.26v-18h-5V86.32h5Zm45.24,9.36h21.24l4.32,10.44h5.88L230.88,43.84h-4.74L207.42,86.32h5.7Zm10.8-25.56h.12l8.4,20.88H219.48Zm53.37,36h5V48.52h14V43.84H267.63v4.68h14Zm22.08,0,4.38-10.44h21.24l4.32,10.44h5.87L321.51,43.84h-4.74L298.05,86.32Zm15.18-36h.12l8.4,20.88H310.1Zm44.69,30.51a9.93,9.93,0,0,1-3,1.41,11.7,11.7,0,0,1-8.48-.72A8.77,8.77,0,0,1,348.33,78L344,81.52a10.67,10.67,0,0,0,2.58,2.73,14.06,14.06,0,0,0,3.21,1.8,17.75,17.75,0,0,0,3.56,1,21.28,21.28,0,0,0,3.73.33,20.81,20.81,0,0,0,5.58-.75,14.44,14.44,0,0,0,4.77-2.28A12.37,12.37,0,0,0,371,69.79a10.25,10.25,0,0,0-2.83-3.45,16,16,0,0,0-4.07-2.28q-2.32-.9-4.77-1.68a36.72,36.72,0,0,1-4.26-1.56,10.58,10.58,0,0,1-2.76-1.68,5.3,5.3,0,0,1-1.48-2,7,7,0,0,1-.45-2.55,6.38,6.38,0,0,1,.79-3.24,6.13,6.13,0,0,1,2.07-2.22,9.73,9.73,0,0,1,2.9-1.26,13.17,13.17,0,0,1,3.31-.42,10.77,10.77,0,0,1,4.38.93,7.47,7.47,0,0,1,3.36,3l4.14-3.6A12.86,12.86,0,0,0,366,43.87a19.61,19.61,0,0,0-12-.33,14.73,14.73,0,0,0-4.62,2.31A11,11,0,0,0,345,55a11.47,11.47,0,0,0,.8,4.53A9.62,9.62,0,0,0,348,62.77a12.57,12.57,0,0,0,3.33,2.28,30.48,30.48,0,0,0,4.19,1.65l4.92,1.68A16.06,16.06,0,0,1,363.93,70a6.07,6.07,0,0,1,2,2.13,6.91,6.91,0,0,1,.65,3.21,6.08,6.08,0,0,1-.83,3.18A7.84,7.84,0,0,1,363.62,80.83Zm36.36,0a10,10,0,0,1-3,1.41,11.76,11.76,0,0,1-8.5-.72A8.8,8.8,0,0,1,384.69,78l-4.33,3.54a10.84,10.84,0,0,0,2.58,2.73,14.72,14.72,0,0,0,3.21,1.8,17.75,17.75,0,0,0,3.58,1,21.06,21.06,0,0,0,3.71.33,20.7,20.7,0,0,0,5.58-.75,14.35,14.35,0,0,0,4.77-2.28,12.28,12.28,0,0,0,3.54-14.58,10.2,10.2,0,0,0-2.81-3.45,16.43,16.43,0,0,0-4.08-2.28q-2.32-.9-4.77-1.68a37.66,37.66,0,0,1-4.27-1.56,10.67,10.67,0,0,1-2.75-1.68,5.27,5.27,0,0,1-1.47-2,6.75,6.75,0,0,1-.45-2.55,6.47,6.47,0,0,1,.77-3.24,6.31,6.31,0,0,1,2.07-2.22,9.79,9.79,0,0,1,2.91-1.26,13.1,13.1,0,0,1,3.3-.42,10.78,10.78,0,0,1,4.39.93,7.39,7.39,0,0,1,3.35,3l4.15-3.6a13,13,0,0,0-5.32-3.87,19.54,19.54,0,0,0-12-.33,14.52,14.52,0,0,0-4.62,2.31,11.17,11.17,0,0,0-3.25,3.81,11.31,11.31,0,0,0-1.2,5.34,11.46,11.46,0,0,0,.82,4.53,9.71,9.71,0,0,0,2.21,3.24,12.79,12.79,0,0,0,3.34,2.28,30.13,30.13,0,0,0,4.2,1.65l4.92,1.68A15.87,15.87,0,0,1,400.28,70a5.9,5.9,0,0,1,2,2.13,6.78,6.78,0,0,1,.66,3.21,6.08,6.08,0,0,1-.83,3.18A7.84,7.84,0,0,1,400,80.83Zm24.79-37h-5V86.32h5Zm40.43,37.8H445.76V43.84h-5V86.32H465.2Zm11.13-.57a21.41,21.41,0,0,0,7,4.65,24.47,24.47,0,0,0,17.82,0,21.41,21.41,0,0,0,7-4.65A20.89,20.89,0,0,0,512.81,74a24.88,24.88,0,0,0,0-17.82,20.89,20.89,0,0,0-4.62-7.08,21.41,21.41,0,0,0-7-4.65,24.47,24.47,0,0,0-17.82,0,21.41,21.41,0,0,0-7,4.65,20.89,20.89,0,0,0-4.62,7.08,24.88,24.88,0,0,0,0,17.82A20.89,20.89,0,0,0,476.33,81.07Zm.36-22.86a17.26,17.26,0,0,1,3.45-5.61,16.07,16.07,0,0,1,5.31-3.78,17.49,17.49,0,0,1,13.62,0,16.07,16.07,0,0,1,5.31,3.78,17.26,17.26,0,0,1,3.45,5.61,19.8,19.8,0,0,1,0,13.74,17.26,17.26,0,0,1-3.45,5.61,16.07,16.07,0,0,1-5.31,3.78,17.49,17.49,0,0,1-13.62,0,16.07,16.07,0,0,1-5.31-3.78A17.26,17.26,0,0,1,476.69,72a19.8,19.8,0,0,1,0-13.74ZM49.44,98.84h-5v42.48h5v-19.8H72.12v19.8h5V98.84h-5v18H49.44Zm50.91.6a21.41,21.41,0,0,0-7,4.65,20.89,20.89,0,0,0-4.62,7.08,24.88,24.88,0,0,0,0,17.82,20.89,20.89,0,0,0,4.62,7.08,21.41,21.41,0,0,0,7,4.65,24.47,24.47,0,0,0,17.82,0,21.41,21.41,0,0,0,7-4.65,20.89,20.89,0,0,0,4.62-7.08,24.88,24.88,0,0,0,0-17.82,20.89,20.89,0,0,0-4.62-7.08,21.41,21.41,0,0,0-7-4.65,24.47,24.47,0,0,0-17.82,0Zm21,8.16a17.26,17.26,0,0,1,3.45,5.61,19.8,19.8,0,0,1,0,13.74,17.26,17.26,0,0,1-3.45,5.61,16.07,16.07,0,0,1-5.31,3.78,17.49,17.49,0,0,1-13.62,0,16.07,16.07,0,0,1-5.31-3.78A17.26,17.26,0,0,1,93.69,127a19.8,19.8,0,0,1,0-13.74,17.26,17.26,0,0,1,3.45-5.61,16.07,16.07,0,0,1,5.31-3.78,17.49,17.49,0,0,1,13.62,0A16.07,16.07,0,0,1,121.38,107.6Zm25,13.92h20.22v-4.68H146.4V103.52h21.66V98.84h-26.7v42.48h27.78v-4.68H146.4Zm42.78-22a20.92,20.92,0,0,0-11.31,11.82,23.91,23.91,0,0,0-1.59,8.76,23.63,23.63,0,0,0,1.65,8.94,21.43,21.43,0,0,0,4.56,7,21,21,0,0,0,6.87,4.65,21.59,21.59,0,0,0,8.52,1.68,22.3,22.3,0,0,0,9.15-1.8A17.48,17.48,0,0,0,214,135l-3.78-3.18a15.78,15.78,0,0,1-5.34,4.41,16.47,16.47,0,0,1-13.53.15,15.63,15.63,0,0,1-5.1-3.75,17.33,17.33,0,0,1-3.33-5.58,19.63,19.63,0,0,1-1.2-6.93,19,19,0,0,1,1.2-6.69,17.76,17.76,0,0,1,3.36-5.64,16.31,16.31,0,0,1,5.13-3.87,14.72,14.72,0,0,1,6.51-1.44,14,14,0,0,1,5.88,1.29,12.13,12.13,0,0,1,4.74,3.87l4.38-3.18a15.31,15.31,0,0,0-6.69-5.1,22.62,22.62,0,0,0-8.31-1.56A21.39,21.39,0,0,0,189.18,99.5Zm38.64-.66h-5v42.48h5v-19.8H250.5v19.8h5V98.84h-5v18H227.82Zm56.7,37a9.93,9.93,0,0,1-3,1.41,11.73,11.73,0,0,1-8.49-.72,8.88,8.88,0,0,1-3.84-3.54l-4.32,3.54a10.84,10.84,0,0,0,2.58,2.73,14.5,14.5,0,0,0,3.21,1.8,17.84,17.84,0,0,0,3.57,1,21.26,21.26,0,0,0,3.72.33,20.75,20.75,0,0,0,5.58-.75,14.44,14.44,0,0,0,4.77-2.28,11.19,11.19,0,0,0,4.59-9.39,11.42,11.42,0,0,0-1.05-5.19,10.11,10.11,0,0,0-2.82-3.45,16.08,16.08,0,0,0-4.08-2.28q-2.31-.9-4.77-1.68a38.15,38.15,0,0,1-4.26-1.56,10.93,10.93,0,0,1-2.76-1.68,5.38,5.38,0,0,1-1.47-2,6.75,6.75,0,0,1-.45-2.55,6.48,6.48,0,0,1,.78-3.24,6.31,6.31,0,0,1,2.07-2.22,9.79,9.79,0,0,1,2.91-1.26,13.1,13.1,0,0,1,3.3-.42,10.7,10.7,0,0,1,4.38.93,7.42,7.42,0,0,1,3.36,3l4.14-3.6a12.86,12.86,0,0,0-5.31-3.87,19.58,19.58,0,0,0-12-.33,14.73,14.73,0,0,0-4.62,2.31,10.94,10.94,0,0,0-4.44,9.15,11.46,11.46,0,0,0,.81,4.53,9.74,9.74,0,0,0,2.22,3.24,12.9,12.9,0,0,0,3.33,2.28,31.14,31.14,0,0,0,4.2,1.65l4.92,1.68a15.74,15.74,0,0,1,3.48,1.62,5.9,5.9,0,0,1,2,2.13,6.78,6.78,0,0,1,.66,3.21,6,6,0,0,1-.84,3.18A7.68,7.68,0,0,1,284.52,135.83Zm13.92-32.31h14v37.8h5v-37.8h14V98.84H298.44Zm45.9,18h20.22v-4.68H344.34V103.52H366V98.84H339.3v42.48h27.78v-4.68H344.34Zm41.76,19.8h5v-37.8h14V98.84H372.06v4.68h14Zm22.19-37.8h14v37.8h5.05v-37.8h14V98.84H408.29Zm44.7,18h20.22v-4.68H453V103.52h21.66V98.84H448v42.48h27.78v-4.68H453Zm58.5-3.42a10.34,10.34,0,0,0,2.82-7.56,11.41,11.41,0,0,0-1.5-6.27,9.82,9.82,0,0,0-3.9-3.51,16.37,16.37,0,0,0-5.43-1.56,51.57,51.57,0,0,0-6.09-.36H486.53v42.48h5V122.24h6.48l11.52,19.08h6.18l-12.06-19.56A13.47,13.47,0,0,0,511.49,118.1Zm-15.42-.54h-4.5v-14h7.08a28.35,28.35,0,0,1,3.69.24,10.09,10.09,0,0,1,3.3,1,6.08,6.08,0,0,1,2.37,2.13,6.61,6.61,0,0,1,.9,3.66,6,6,0,0,1-1.23,4,7.2,7.2,0,0,1-3.12,2.07,14.92,14.92,0,0,1-4.14.78Q498.17,117.56,496.07,117.56ZM0,0V186.78H558.86V0ZM554.16,182.08H4.7V4.7H554.16Z"/></g></g></svg>