<svg xmlns="http://www.w3.org/2000/svg" viewBox="0 0 1060.97 183.97"><title>sth-stamp</title><g id="Layer_2" data-name="Layer 2"><g id="Layer_1-2" data-name="Layer 1"><path d="M785.33,104a9.93,9.93,0,0,1-3,1.41,11.73,11.73,0,0,1-8.49-.72A8.88,8.88,0,0,1,770,101.1l-4.32,3.54a10.84,10.84,0,0,0,2.58,2.73,14.5,14.5,0,0,0,3.21,1.8,17.84,17.84,0,0,0,3.57,1,21.26,21.26,0,0,0,3.72.33,20.75,20.75,0,0,0,5.58-.75,14.44,14.44,0,0,0,4.77-2.28,11.19,11.19,0,0,0,4.59-9.39,11.42,11.42,0,0,0-1.05-5.19,10.11,10.11,0,0,0-2.82-3.45,16.08,16.08,0,0,0-4.08-2.28q-2.31-.9-4.77-1.68a38.15,38.15,0,0,1-4.26-1.56A10.93,10.93,0,0,1,774,82.26a5.38,5.38,0,0,1-1.47-2,6.75,6.75,0,0,1-.45-2.55,6.48,6.48,0,0,1,.78-3.24,6.31,6.31,0,0,1,2.07-2.22A9.79,9.79,0,0,1,777.83,71a13.1,13.1,0,0,1,3.3-.42,10.7,10.7,0,0,1,4.38.93,7.42,7.42,0,0,1,3.36,3l4.14-3.6A12.86,12.86,0,0,0,787.7,67a19.58,19.58,0,0,0-12-.33A14.73,14.73,0,0,0,771.11,69a10.94,10.94,0,0,0-4.44,9.15,11.46,11.46,0,0,0,.81,4.53,9.74,9.74,0,0,0,2.22,3.24A12.9,12.9,0,0,0,773,88.17a31.14,31.14,0,0,0,4.2,1.65l4.92,1.68a15.74,15.74,0,0,1,3.48,1.62,5.9,5.9,0,0,1,2,2.13,6.78,6.78,0,0,1,.66,3.21,6,6,0,0,1-.84,3.18A7.68,7.68,0,0,1,785.33,104Zm-56.7-14.31h22.68v19.8h5V67h-5V85H728.63V67h-5v42.48h5ZM670,104.76H647.22V89.64h20.22V85H647.22V71.64h21.66V67h-26.7v42.48H670Zm-75.81-.57a21.41,21.41,0,0,0,7,4.65,24.47,24.47,0,0,0,17.82,0,21.41,21.41,0,0,0,7-4.65,21,21,0,0,0,4.62-7.08,24.88,24.88,0,0,0,0-17.82A21,21,0,0,0,626,72.21a21.41,21.41,0,0,0-7-4.65,24.47,24.47,0,0,0-17.82,0,21.41,21.41,0,0,0-7,4.65,20.74,20.74,0,0,0-4.62,7.08,24.88,24.88,0,0,0,0,17.82A20.74,20.74,0,0,0,594.15,104.19Zm.36-22.86A17.1,17.1,0,0,1,598,75.72a16,16,0,0,1,5.31-3.78,17.49,17.49,0,0,1,13.62,0,16.17,16.17,0,0,1,5.31,3.78,17.44,17.44,0,0,1,3.45,5.61,19.8,19.8,0,0,1,0,13.74,17.44,17.44,0,0,1-3.45,5.61,16.17,16.17,0,0,1-5.31,3.78,17.49,17.49,0,0,1-13.62,0,16,16,0,0,1-5.31-3.78,17.1,17.1,0,0,1-3.45-5.61,19.8,19.8,0,0,1,0-13.74Zm218.78,28.11h5V71.64h14V67H799.25v4.68h14Zm-130-5.25a21,21,0,0,0,6.87,4.65,21.59,21.59,0,0,0,8.52,1.68,22.3,22.3,0,0,0,9.15-1.8,17.48,17.48,0,0,0,6.93-5.64L711,99.9a15.78,15.78,0,0,1-5.34,4.41,16.47,16.47,0,0,1-13.53.15,15.63,15.63,0,0,1-5.1-3.75,17.33,17.33,0,0,1-3.33-5.58,19.63,19.63,0,0,1-1.2-6.93,19,19,0,0,1,1.2-6.69,17.76,17.76,0,0,1,3.36-5.64A16.31,16.31,0,0,1,692.18,72a14.72,14.72,0,0,1,6.51-1.44,14,14,0,0,1,5.88,1.29,12.13,12.13,0,0,1,4.74,3.87l4.38-3.18a15.31,15.31,0,0,0-6.69-5.1,22.62,22.62,0,0,0-8.31-1.56,21,21,0,0,0-20,13.56,23.91,23.91,0,0,0-1.59,8.76,23.63,23.63,0,0,0,1.65,8.94A21.43,21.43,0,0,0,683.3,104.19Zm293.25.57H953.81V89.64H974V85H953.81V71.64h21.66V67h-26.7v42.48h27.78Zm-108.66,0H845.15V89.64h20.22V85H845.15V71.64h21.66V67h-26.7v42.48h27.78Zm124.5-14.4h6.48l11.52,19.08h6.18l-12.06-19.56a13.47,13.47,0,0,0,7.8-3.66,10.34,10.34,0,0,0,2.82-7.56,11.41,11.41,0,0,0-1.5-6.27,9.82,9.82,0,0,0-3.9-3.51,16.37,16.37,0,0,0-5.43-1.56,51.57,51.57,0,0,0-6.09-.36H987.35v42.48h5Zm0-18.72h7.08a28.35,28.35,0,0,1,3.69.24,10.09,10.09,0,0,1,3.3,1,6.08,6.08,0,0,1,2.37,2.13,6.61,6.61,0,0,1,.9,3.66,6,6,0,0,1-1.23,4,7.2,7.2,0,0,1-3.12,2.07,14.92,14.92,0,0,1-4.14.78q-2.25.12-4.35.12h-4.5Zm-69.24,37.8h5V71.64h14V67H909.11v4.68h14Zm-36.24,0h5V71.64h14V67H872.87v4.68h14Zm-408.2-5.25a21.41,21.41,0,0,0,7,4.65,24.47,24.47,0,0,0,17.82,0,21.41,21.41,0,0,0,7-4.65,20.89,20.89,0,0,0,4.62-7.08,24.88,24.88,0,0,0,0-17.82,20.89,20.89,0,0,0-4.62-7.08,21.41,21.41,0,0,0-7-4.65,24.47,24.47,0,0,0-17.82,0,21.41,21.41,0,0,0-7,4.65,20.89,20.89,0,0,0-4.62,7.08,24.88,24.88,0,0,0,0,17.82A20.89,20.89,0,0,0,478.71,104.19Zm.36-22.86a17.26,17.26,0,0,1,3.45-5.61,16.07,16.07,0,0,1,5.31-3.78,17.49,17.49,0,0,1,13.62,0,16.07,16.07,0,0,1,5.31,3.78,17.26,17.26,0,0,1,3.45,5.61,19.8,19.8,0,0,1,0,13.74,17.26,17.26,0,0,1-3.45,5.61,16.07,16.07,0,0,1-5.31,3.78,17.49,17.49,0,0,1-13.62,0,16.07,16.07,0,0,1-5.31-3.78,17.26,17.26,0,0,1-3.45-5.61,19.8,19.8,0,0,1,0-13.74ZM64,104a9.93,9.93,0,0,1-3,1.41,11.73,11.73,0,0,1-8.49-.72,8.88,8.88,0,0,1-3.84-3.54l-4.32,3.54A10.84,10.84,0,0,0,47,107.37a14.5,14.5,0,0,0,3.21,1.8,17.84,17.84,0,0,0,3.57,1,21.26,21.26,0,0,0,3.72.33,20.75,20.75,0,0,0,5.58-.75,14.44,14.44,0,0,0,4.77-2.28,11.19,11.19,0,0,0,4.59-9.39,11.42,11.42,0,0,0-1-5.19,10.11,10.11,0,0,0-2.82-3.45,16.08,16.08,0,0,0-4.08-2.28q-2.31-.9-4.77-1.68a38.15,38.15,0,0,1-4.26-1.56,10.93,10.93,0,0,1-2.76-1.68,5.38,5.38,0,0,1-1.47-2,6.75,6.75,0,0,1-.45-2.55,6.48,6.48,0,0,1,.78-3.24,6.31,6.31,0,0,1,2.07-2.22A9.79,9.79,0,0,1,56.52,71a13.1,13.1,0,0,1,3.3-.42,10.7,10.7,0,0,1,4.38.93,7.42,7.42,0,0,1,3.36,3l4.14-3.6A12.86,12.86,0,0,0,66.39,67a19.58,19.58,0,0,0-12-.33A14.73,14.73,0,0,0,49.8,69a10.94,10.94,0,0,0-4.44,9.15,11.46,11.46,0,0,0,.81,4.53,9.74,9.74,0,0,0,2.22,3.24,12.9,12.9,0,0,0,3.33,2.28,31.14,31.14,0,0,0,4.2,1.65l4.92,1.68a15.74,15.74,0,0,1,3.48,1.62,5.9,5.9,0,0,1,2,2.13A6.78,6.78,0,0,1,67,98.46a6,6,0,0,1-.84,3.18A7.68,7.68,0,0,1,64,104Zm220,5.49h5V71.64h14V67H270v4.68h14Zm22.08,0L310.5,99h21.24l4.32,10.44h5.88L323.88,67h-4.74l-18.72,42.48Zm15.18-36h.12l8.4,20.88H312.48ZM86.52,99h21.24l4.32,10.44H118L99.9,67H95.16L76.44,109.44h5.7Zm10.8-25.56h.12l8.4,20.88H88.5ZM218.46,99H239.7L244,109.44h5.88L231.84,67H227.1l-18.72,42.48h5.7Zm10.8-25.56h.12l8.4,20.88H220.44Zm-56,16.2H195.9v19.8h5V67h-5V85H173.22V67h-5v42.48h5Zm-46.53,14.55a21,21,0,0,0,6.87,4.65,21.59,21.59,0,0,0,8.52,1.68,22.3,22.3,0,0,0,9.15-1.8,17.48,17.48,0,0,0,6.93-5.64l-3.78-3.18a15.78,15.78,0,0,1-5.34,4.41,16.47,16.47,0,0,1-13.53.15,15.63,15.63,0,0,1-5.1-3.75,17.33,17.33,0,0,1-3.33-5.58,19.63,19.63,0,0,1-1.2-6.93,19,19,0,0,1,1.2-6.69,17.76,17.76,0,0,1,3.36-5.64A16.31,16.31,0,0,1,135.57,72a14.72,14.72,0,0,1,6.51-1.44A14,14,0,0,1,148,71.85a12.13,12.13,0,0,1,4.74,3.87l4.38-3.18a15.31,15.31,0,0,0-6.69-5.1,22.62,22.62,0,0,0-8.31-1.56,21,21,0,0,0-20,13.56,23.91,23.91,0,0,0-1.59,8.76,23.63,23.63,0,0,0,1.65,8.94A21.43,21.43,0,0,0,126.69,104.19Zm340.89.57H448.14V67h-5v42.48h24.48Zm82.64-15.12H572.9v19.8h5V67h-5V85H550.22V67h-5v42.48h5ZM402.36,104a9.93,9.93,0,0,1-3,1.41,11.73,11.73,0,0,1-8.49-.72,8.88,8.88,0,0,1-3.84-3.54l-4.32,3.54a10.84,10.84,0,0,0,2.58,2.73,14.5,14.5,0,0,0,3.21,1.8,17.84,17.84,0,0,0,3.57,1,21.26,21.26,0,0,0,3.72.33,20.75,20.75,0,0,0,5.58-.75,14.44,14.44,0,0,0,4.77-2.28,11.19,11.19,0,0,0,4.59-9.39,11.42,11.42,0,0,0-1.05-5.19,10.11,10.11,0,0,0-2.82-3.45,16.08,16.08,0,0,0-4.08-2.28q-2.31-.9-4.77-1.68a38.15,38.15,0,0,1-4.26-1.56A10.93,10.93,0,0,1,391,82.26a5.38,5.38,0,0,1-1.47-2,6.75,6.75,0,0,1-.45-2.55,6.48,6.48,0,0,1,.78-3.24A6.31,6.31,0,0,1,392,72.24,9.79,9.79,0,0,1,394.86,71a13.1,13.1,0,0,1,3.3-.42,10.7,10.7,0,0,1,4.38.93,7.42,7.42,0,0,1,3.36,3l4.14-3.6A12.86,12.86,0,0,0,404.73,67a19.58,19.58,0,0,0-12-.33A14.73,14.73,0,0,0,388.14,69a10.94,10.94,0,0,0-4.44,9.15,11.46,11.46,0,0,0,.81,4.53,9.74,9.74,0,0,0,2.22,3.24,12.9,12.9,0,0,0,3.33,2.28,31.14,31.14,0,0,0,4.2,1.65l4.92,1.68a15.74,15.74,0,0,1,3.48,1.62,5.9,5.9,0,0,1,2,2.13,6.78,6.78,0,0,1,.66,3.21,6,6,0,0,1-.84,3.18A7.68,7.68,0,0,1,402.36,104Zm24.78-37h-5v42.48h5ZM366,104a9.93,9.93,0,0,1-3,1.41,11.73,11.73,0,0,1-8.49-.72,8.88,8.88,0,0,1-3.84-3.54l-4.32,3.54a10.84,10.84,0,0,0,2.58,2.73,14.5,14.5,0,0,0,3.21,1.8,17.84,17.84,0,0,0,3.57,1,21.26,21.26,0,0,0,3.72.33,20.75,20.75,0,0,0,5.58-.75,14.44,14.44,0,0,0,4.77-2.28,11.19,11.19,0,0,0,4.59-9.39,11.42,11.42,0,0,0-1-5.19,10.11,10.11,0,0,0-2.82-3.45,16.08,16.08,0,0,0-4.08-2.28q-2.31-.9-4.77-1.68a38.15,38.15,0,0,1-4.26-1.56,10.93,10.93,0,0,1-2.76-1.68,5.38,5.38,0,0,1-1.47-2,6.75,6.75,0,0,1-.45-2.55,6.48,6.48,0,0,1,.78-3.24,6.31,6.31,0,0,1,2.07-2.22A9.79,9.79,0,0,1,358.5,71a13.1,13.1,0,0,1,3.3-.42,10.7,10.7,0,0,1,4.38.93,7.42,7.42,0,0,1,3.36,3l4.14-3.6A12.86,12.86,0,0,0,368.37,67a19.58,19.58,0,0,0-12-.33A14.73,14.73,0,0,0,351.78,69a10.94,10.94,0,0,0-4.44,9.15,11.46,11.46,0,0,0,.81,4.53,9.74,9.74,0,0,0,2.22,3.24,12.9,12.9,0,0,0,3.33,2.28,31.14,31.14,0,0,0,4.2,1.65l4.92,1.68a15.74,15.74,0,0,1,3.48,1.62,5.9,5.9,0,0,1,2,2.13,6.78,6.78,0,0,1,.66,3.21,6,6,0,0,1-.84,3.18A7.68,7.68,0,0,1,366,104ZM0,0V184H1061V0ZM1056.29,179.29H4.68V4.68H1056.29Z"/></g></g></svg>