<svg xmlns="http://www.w3.org/2000/svg" viewBox="0 0 3521.04 87.48">
	<g id="Layer_1-2" data-name="Layer 1">
		<path d="M19.2,24.48c-.12-7.32,6.72-12.12,17-12.12,11.64,0,17.64,6,19.08,13.56H70.56C69,10.44,55.2,0,35,0,15.6,0,2.88,10.2,3.12,25.44c.6,35.4,51.72,17.16,52.08,38,.12,6.84-6.48,11.28-16.68,11.28-14.4,0-22.08-7.2-23.4-15.6H0C1.68,76.44,15.84,87.48,37.8,87.48c20,0,33.24-10.2,33-25.44C70.2,28.2,19.56,46,19.2,24.48ZM115.32,1.8l-38,84H93.72l8.4-19.44H142.8l8.4,19.44h16.2l-37.8-84ZM107.88,53l14.4-33.72h.36L137,53ZM216.72,13.8c13.8,0,22.92,7.8,26.28,19.56h15.72C255.36,13.2,238,0,216.72,0,189.6,0,171.6,17.52,171.6,43.68s18,43.68,45.12,43.68c21.24,0,38.64-13.2,42-33.36H243c-3.36,11.76-12.48,19.56-26.28,19.56-17.76,0-29.52-12-29.52-29.88S199,13.8,216.72,13.8ZM332.64,37.92H289.56V1.8H274.32v84h15.24V51.24h43.08V85.8h15.24V1.8H332.64ZM394.92,1.8l-38,84h16.44l8.4-19.44H422.4l8.39,19.44H447L409.2,1.8ZM387.48,53l14.4-33.72h.36L416.64,53ZM554.75,1.8H479.4V15.12h30V85.8h15.24V15.12h30.12Zm31.44,0-38,84h16.43L573,66.36h40.68l8.4,19.44h16.2l-37.8-84ZM578.75,53l14.4-33.72h.36L607.91,53Zm84-28.56c-.12-7.32,6.72-12.12,17-12.12,11.64,0,17.64,6,19.08,13.56h15.24C712.55,10.44,698.75,0,678.59,0c-19.44,0-32.16,10.2-31.92,25.44.6,35.4,51.72,17.16,52.08,38,.12,6.84-6.48,11.28-16.68,11.28-14.4,0-22.08-7.2-23.4-15.6H643.55c1.68,17.28,15.84,28.32,37.8,28.32,20,0,33.24-10.2,33-25.44C713.75,28.2,663.11,46,662.75,24.48Zm81.6,0c-.12-7.32,6.72-12.12,17-12.12,11.64,0,17.64,6,19.08,13.56h15.24C794.15,10.44,780.35,0,760.19,0,740.75,0,728,10.2,728.27,25.44c.6,35.4,51.72,17.16,52.08,38,.12,6.84-6.48,11.28-16.68,11.28-14.4,0-22.08-7.2-23.4-15.6H725.15C726.83,76.44,741,87.48,763,87.48c20,0,33.24-10.2,33-25.44C795.35,28.2,744.71,46,744.35,24.48Zm65.4,61.32H825V1.8H809.75Zm46.08-84H840.59v84h60.72v-13H855.83ZM951.23.12c-26.4,0-45.12,18.12-45.12,43.68s18.72,43.68,45.12,43.68,45.12-18.12,45.12-43.68S977.63.12,951.23.12Zm0,73.92c-17.4,0-29.64-12.48-29.64-30.24s12.24-30.24,29.64-30.24S980.87,26,980.87,43.8,968.63,74,951.23,74Zm145.44-36.12h-43.08V1.8h-15.24v84h15.24V51.24h43.08V85.8h15.24V1.8h-15.24ZM1170.23.12c-26.4,0-45.12,18.12-45.12,43.68s18.72,43.68,45.12,43.68,45.12-18.12,45.12-43.68S1196.63.12,1170.23.12Zm0,73.92c-17.4,0-29.64-12.48-29.64-30.24s12.24-30.24,29.64-30.24S1199.87,26,1199.87,43.8,1187.63,74,1170.23,74Zm58.32,11.76h62.76V72.48h-47.52V51h42.48V37.68h-42.48V15.12h47.52V1.8h-62.76ZM1346,13.8c13.8,0,22.92,7.8,26.28,19.56H1388C1384.67,13.2,1367.27,0,1346,0c-27.12,0-45.12,17.52-45.12,43.68s18,43.68,45.12,43.68c21.24,0,38.64-13.2,42-33.36h-15.71C1369,65.76,1359.83,73.56,1346,73.56c-17.76,0-29.52-12-29.52-29.88S1328.27,13.8,1346,13.8Zm113.52,24.12h-43.08V1.8h-15.24v84h15.24V51.24h43.08V85.8h15.24V1.8h-15.24Zm47-13.44c-.12-7.32,6.72-12.12,17-12.12,11.64,0,17.64,6,19.08,13.56h15.24C1556.38,10.44,1542.58,0,1522.42,0c-19.43,0-32.15,10.2-31.91,25.44.6,35.4,51.71,17.16,52.07,38,.12,6.84-6.48,11.28-16.68,11.28-14.39,0-22.07-7.2-23.39-15.6h-15.12c1.68,17.28,15.84,28.32,37.79,28.32,20,0,33.24-10.2,33-25.44C1557.58,28.2,1507,46,1506.59,24.48Zm60-9.36h30V85.8h15.24V15.12h30.12V1.8h-75.35Zm85.55,70.68h62.76V72.48h-47.52V51h42.48V37.68h-42.48V15.12h47.52V1.8h-62.76Zm69.36-70.68h30V85.8h15.24V15.12h30.12V1.8H1721.5Zm80.16,0h30V85.8h15.24V15.12H1877V1.8h-75.36Zm83.16,70.68h62.76V72.48h-47.52V51h42.48V37.68h-42.48V15.12h47.52V1.8h-62.76ZM2031,28c0-15.72-13-26.16-32.52-26.16H1962v84h15.24V54.12H1995l23.64,31.68h18.6l-25.56-34C2023.66,48,2031,39.36,2031,28ZM1977.22,40.8V15.12h19.68c12,0,19.08,4.8,19.08,12.84s-7.56,12.84-20.28,12.84Zm119.12-18h-19.67v49h8.89V56.46h10.08c11.69,0,20-7.14,20-17.22C2115.59,29.58,2107.61,22.79,2096.34,22.79Zm-1,26h-9.8V30.56h9.8c6.65,0,11.41,3.57,11.41,8.68C2106.77,44.84,2102,48.76,2095.36,48.76Zm59.85-4.9h-25.13V22.79h-8.89v49h8.89V51.63h25.13V71.8h8.89v-49h-8.89Zm42.91-22c-15.4,0-26.32,10.57-26.32,25.48s10.92,25.49,26.32,25.49,26.32-10.57,26.32-25.49S2213.52,21.81,2198.12,21.81Zm0,43.13c-10.15,0-17.29-7.28-17.29-17.65s7.14-17.64,17.29-17.64,17.29,7.28,17.29,17.64S2208.27,64.94,2198.12,64.94Zm29.82-34.38h17.5V71.8h8.89V30.56h17.57V22.79h-44Zm73.78-8.75c-15.4,0-26.32,10.57-26.32,25.48s10.92,25.49,26.32,25.49S2328,62.21,2328,47.29,2317.12,21.81,2301.72,21.81Zm0,43.13c-10.15,0-17.29-7.28-17.29-17.65s7.14-17.64,17.29-17.64S2319,36.93,2319,47.29,2311.87,64.94,2301.72,64.94Zm57.82-11.48h16.59c-1.4,6.86-7.28,11.2-15.54,11.2-10.29,0-17.15-6.93-17.15-17.44s6.86-17.43,17.15-17.43c6.86,0,12.88,3,15.4,9.31h9.38c-2.52-9.73-11.55-17.36-24.78-17.36-15.75,0-26.25,10.22-26.25,25.48s10.5,25.56,26.25,25.56,25.48-10.08,25.27-27.1h-26.32Zm74.27-15.41c0-9.17-7.56-15.26-19-15.26h-21.29v49h8.9V53.32h10.36L2426.6,71.8h10.85L2422.54,52C2429.54,49.74,2433.81,44.7,2433.81,38.05Zm-31.36,7.49v-15h11.48c7,0,11.13,2.8,11.13,7.49s-4.41,7.49-11.83,7.49Zm58.24-22.75-22.2,49h9.6l4.9-11.34h23.73l4.9,11.34h9.45l-22.05-49Zm-4.34,29.89,8.4-19.67h.21l8.4,19.67ZM2516,22.79h-19.68v49h8.9V56.46h10.08c11.69,0,19.95-7.14,19.95-17.22C2535.24,29.58,2527.26,22.79,2516,22.79Zm-1,26h-9.8V30.56h9.8c6.65,0,11.41,3.57,11.41,8.68C2526.42,44.84,2521.66,48.76,2515,48.76Zm46-1.26-14.85-24.71h-9.87l20.24,33v16h9v-16l20.23-33h-9.87Zm107.8-24.71L2656.27,59H2656l-12.4-36.2h-10.22l-13.3,49h9.38l9.8-35.85h.28l12.25,35.85h8.76L2672.72,36h.28l9.94,35.85h9.38l-13.3-49Zm53.68-1c-15.4,0-26.32,10.57-26.32,25.48s10.92,25.49,26.32,25.49,26.33-10.57,26.33-25.49S2737.89,21.81,2722.48,21.81Zm0,43.13c-10.15,0-17.29-7.28-17.29-17.65s7.14-17.64,17.29-17.64,17.3,7.28,17.3,17.64S2732.64,64.94,2722.48,64.94Zm29.82-34.38h17.5V71.8h8.89V30.56h17.58V22.79h-44Zm49.91,41.24h8.89v-49h-8.89Zm42.91-50c-15.4,0-26.32,10.57-26.32,25.48s10.92,25.49,26.32,25.49,26.33-10.57,26.33-25.49S2860.52,21.81,2845.12,21.81Zm0,43.13c-10.15,0-17.29-7.28-17.29-17.65s7.14-17.64,17.29-17.64,17.29,7.28,17.29,17.64S2855.27,64.94,2845.12,64.94Zm69.72-8.12-29-34h-6.72v49H2888V38.54l28.7,33.26h7v-49h-8.89Zm69.93-34-22.19,49h9.59l4.9-11.34h23.73l4.9,11.34h9.45l-22.05-49Zm-4.34,29.89,8.4-19.67h.21l8.4,19.67Zm80.22-14.63c0-9.17-7.56-15.26-19-15.26H3020.4v49h8.89V53.32h10.36l13.79,18.48h10.85L3049.38,52C3056.38,49.74,3060.65,44.7,3060.65,38.05Zm-31.36,7.49v-15h11.48c7,0,11.13,2.8,11.13,7.49s-4.41,7.49-11.83,7.49Zm36.05-15h17.5V71.8h8.89V30.56h17.57V22.79h-44Zm85.19-7.77h-18.48v49h18.48c16.45,0,27.37-9.8,27.37-24.51S3167,22.79,3150.53,22.79Zm-1,41.24h-8.61V30.56h8.61c11.48,0,19.18,6.72,19.18,16.73S3161,64,3149.55,64Zm36,7.77h8.89v-49h-8.89Zm58.24-33.75c0-9.17-7.56-15.26-19-15.26h-21.29v49h8.9V53.32h10.36l13.79,18.48h10.85L3232.57,52C3239.57,49.74,3243.84,44.7,3243.84,38.05Zm-31.36,7.49v-15H3224c7,0,11.13,2.8,11.13,7.49s-4.41,7.49-11.83,7.49Zm40.59,26.26h36.62V64H3262V51.5h24.78V43.72H3262V30.56h27.72V22.79h-36.62Zm68.54-42c8,0,13.37,4.55,15.33,11.41h9.17c-2-11.76-12.11-19.46-24.5-19.46-15.83,0-26.33,10.22-26.33,25.48s10.5,25.49,26.33,25.49c12.39,0,22.54-7.7,24.5-19.46h-9.17c-2,6.86-7.28,11.41-15.33,11.41-10.36,0-17.23-7-17.23-17.44S3311.25,29.79,3321.61,29.79Zm28,.77h17.5V71.8h8.9V30.56h17.57V22.79h-44Zm49.91,41.24h8.89v-49h-8.89Zm42.91-50c-15.4,0-26.32,10.57-26.32,25.48s10.92,25.49,26.32,25.49,26.33-10.57,26.33-25.49S3457.83,21.81,3442.42,21.81Zm0,43.13c-10.15,0-17.29-7.28-17.29-17.65s7.14-17.64,17.29-17.64,17.3,7.28,17.3,17.64S3452.58,64.94,3442.42,64.94Zm69.73-42.15v34l-29-34h-6.72v49h8.89V38.54L3514,71.8h7v-49Z"/>
	</g>
</svg>