<svg xmlns="http://www.w3.org/2000/svg" viewBox="0 0 1018.61 43.74">
	<g id="Layer_1-2" data-name="Layer 1">
		<path d="M9.6,12.24C9.54,8.58,13,6.18,18.12,6.18c5.82,0,8.82,3,9.54,6.78h7.62C34.5,5.22,27.6,0,17.52,0,7.8,0,1.44,5.1,1.56,12.72c.3,17.7,25.86,8.58,26,19,.06,3.42-3.24,5.64-8.34,5.64-7.2,0-11-3.6-11.7-7.8H0c.84,8.64,7.92,14.16,18.9,14.16,10,0,16.62-5.1,16.5-12.72C35.1,14.1,9.78,23,9.6,12.24ZM57.66.9l-19,42h8.22l4.2-9.72H71.4l4.2,9.72h8.1L64.8.9ZM53.94,26.52l7.2-16.86h.18l7.2,16.86ZM108.36,6.9c6.9,0,11.46,3.9,13.14,9.78h7.86C127.68,6.6,119,0,108.36,0,94.8,0,85.8,8.76,85.8,21.84s9,21.84,22.56,21.84c10.62,0,19.32-6.6,21-16.68H121.5c-1.68,5.88-6.24,9.78-13.14,9.78-8.88,0-14.76-6-14.76-14.94S99.48,6.9,108.36,6.9Zm58,12.06H144.78V.9h-7.62v42h7.62V25.62h21.54V42.9h7.62V.9h-7.62ZM197.46.9l-19,42h8.22l4.2-9.72H211.2l4.2,9.72h8.1L204.6.9Zm-3.72,25.62,7.2-16.86h.18l7.2,16.86ZM271.38.9H233.7V7.56h15V42.9h7.62V7.56h15.06ZM287.1.9l-19,42h8.22l4.2-9.72h20.34L305,42.9h8.1L294.24.9Zm-3.72,25.62,7.2-16.86h.18L298,26.52Zm42-14.28c-.06-3.66,3.36-6.06,8.52-6.06,5.82,0,8.82,3,9.54,6.78h7.62c-.79-7.74-7.68-13-17.76-13-9.72,0-16.08,5.1-16,12.72.3,17.7,25.86,8.58,26,19,.06,3.42-3.24,5.64-8.34,5.64-7.2,0-11-3.6-11.7-7.8h-7.56c.84,8.64,7.92,14.16,18.9,14.16,10,0,16.61-5.1,16.49-12.72C350.88,14.1,325.56,23,325.38,12.24Zm42,0c-.06-3.66,3.36-6.06,8.52-6.06,5.82,0,8.81,3,9.54,6.78h7.61c-.78-7.74-7.67-13-17.75-13-9.72,0-16.08,5.1-16,12.72.3,17.7,25.85,8.58,26,19,.06,3.42-3.24,5.64-8.34,5.64-7.2,0-11-3.6-11.7-7.8h-7.56c.84,8.64,7.92,14.16,18.9,14.16,10,0,16.61-5.1,16.49-12.72C392.87,14.1,367.56,23,367.38,12.24Zm33.9,30.66h7.62V.9h-7.62ZM427.92.9H420.3v42h30.35V36.42H427.92ZM475.61.06c-13.19,0-22.55,9.06-22.55,21.84s9.36,21.84,22.55,21.84,22.56-9.06,22.56-21.84S488.81.06,475.61.06Zm0,37c-8.69,0-14.82-6.24-14.82-15.12s6.13-15.12,14.82-15.12S490.43,13,490.43,21.9,484.31,37,475.61,37ZM548.33,19H526.79V.9h-7.62v42h7.62V25.62h21.54V42.9H556V.9h-7.62ZM585.11.06c-13.2,0-22.56,9.06-22.56,21.84s9.36,21.84,22.56,21.84,22.56-9.06,22.56-21.84S598.31.06,585.11.06Zm0,37c-8.7,0-14.82-6.24-14.82-15.12s6.12-15.12,14.82-15.12S599.93,13,599.93,21.9,593.81,37,585.11,37Zm29.16,5.88h31.38V36.24H621.89V25.5h21.24V18.84H621.89V7.56h23.76V.9H614.27ZM673,6.9c6.9,0,11.46,3.9,13.14,9.78H694C692.33,6.6,683.63,0,673,0c-13.56,0-22.56,8.76-22.56,21.84s9,21.84,22.56,21.84c10.62,0,19.32-6.6,21-16.68h-7.86c-1.68,5.88-6.24,9.78-13.14,9.78-8.88,0-14.76-6-14.76-14.94S664.13,6.9,673,6.9ZM729.77,19H708.23V.9h-7.62v42h7.62V25.62h21.54V42.9h7.62V.9h-7.62Zm23.52-6.72c-.06-3.66,3.36-6.06,8.52-6.06,5.82,0,8.82,3,9.54,6.78H779c-.78-7.74-7.68-13-17.76-13-9.72,0-16.08,5.1-16,12.72.3,17.7,25.86,8.58,26,19,.06,3.42-3.24,5.64-8.34,5.64-7.2,0-11-3.6-11.7-7.8h-7.56c.84,8.64,7.92,14.16,18.9,14.16,10,0,16.62-5.1,16.5-12.72C778.79,14.1,753.47,23,753.29,12.24Zm30-4.68h15V42.9h7.62V7.56H821V.9H783.29ZM826.07,42.9h31.38V36.24H833.69V25.5h21.24V18.84H833.69V7.56h23.76V.9H826.07ZM860.75,7.56h15V42.9h7.62V7.56h15.06V.9H860.75Zm40.08,0h15V42.9h7.62V7.56h15.06V.9H900.83ZM942.41,42.9h31.38V36.24H950V25.5h21.24V18.84H950V7.56h23.76V.9H942.41Zm63.42-17c6-1.92,9.66-6.24,9.66-11.94C1015.49,6.12,1009,.9,999.23.9H981v42h7.62V27.06h8.88l11.82,15.84h9.3ZM988.61,20.4V7.56h9.84c6,0,9.54,2.4,9.54,6.42s-3.78,6.42-10.14,6.42Z"/>
	</g>
</svg>