<svg xmlns="http://www.w3.org/2000/svg" viewBox="0 0 500.45 98.74"><title>Asset 49</title><g id="Layer_2" data-name="Layer 2" style="fill:white;"><g id="Layer_1-2" data-name="Layer 1"><path d="M19.26,37.38c-7.2,0-11-3.6-11.7-7.8H0c.84,8.64,7.92,14.16,18.9,14.16,10,0,16.62-5.1,16.5-12.72C35.1,14.1,9.78,23,9.6,12.24,9.54,8.58,13,6.18,18.12,6.18c5.82,0,8.82,3,9.54,6.78h7.62C34.5,5.22,27.6,0,17.52,0,7.8,0,1.44,5.1,1.56,12.72c.3,17.7,25.86,8.58,26,19C27.66,35.16,24.36,37.38,19.26,37.38Zm31.8-4.2H71.4l4.2,9.72h8.1L64.8.9H57.66l-19,42h8.22ZM61.14,9.66h.18l7.2,16.86H53.94ZM108.36,6.9c6.9,0,11.46,3.9,13.14,9.78h7.86C127.68,6.6,119,0,108.36,0,94.8,0,85.8,8.76,85.8,21.84s9,21.84,22.56,21.84c10.62,0,19.32-6.6,21-16.68H121.5c-1.68,5.88-6.24,9.78-13.14,9.78-8.88,0-14.76-6-14.76-14.94S99.48,6.9,108.36,6.9Zm36.42,18.72h21.54V42.9h7.62V.9h-7.62V19H144.78V.9h-7.62v42h7.62ZM197.46.9l-19,42h8.22l4.2-9.72H211.2l4.2,9.72h8.1L204.6.9Zm-3.72,25.62,7.2-16.86h.18l7.2,16.86Zm55,16.38h7.62V7.56h15.06V.9H233.7V7.56h15ZM294.24.9H287.1l-19,42h8.22l4.2-9.72h20.34L305,42.9h8.1ZM283.38,26.52l7.2-16.86h.18L298,26.52ZM335,37.38c-7.2,0-11-3.6-11.7-7.8h-7.56c.84,8.64,7.92,14.16,18.9,14.16,10,0,16.61-5.1,16.5-12.72-.3-16.92-25.62-8-25.8-18.78-.06-3.66,3.36-6.06,8.52-6.06,5.82,0,8.82,3,9.54,6.78h7.62c-.78-7.74-7.68-13-17.76-13-9.72,0-16.08,5.1-16,12.72.3,17.7,25.86,8.58,26,19C343.44,35.16,340.14,37.38,335,37.38Zm42,0c-7.2,0-11-3.6-11.7-7.8h-7.56c.84,8.64,7.92,14.16,18.9,14.16,10,0,16.61-5.1,16.49-12.72-.29-16.92-25.61-8-25.79-18.78-.06-3.66,3.36-6.06,8.52-6.06,5.82,0,8.82,3,9.54,6.78h7.61c-.78-7.74-7.67-13-17.75-13-9.72,0-16.08,5.1-16,12.72.3,17.7,25.86,8.58,26,19C385.44,35.16,382.14,37.38,377,37.38ZM408.9.9h-7.62v42h7.62Zm41.75,35.52H427.92V.9H420.3v42h30.35ZM498.17,21.9c0-12.78-9.36-21.84-22.56-21.84S453.06,9.12,453.06,21.9s9.36,21.84,22.55,21.84S498.17,34.68,498.17,21.9Zm-37.37,0c0-8.88,6.12-15.12,14.81-15.12S490.43,13,490.43,21.9,484.31,37,475.61,37,460.8,30.78,460.8,21.9ZM30.18,74H8.64V55.9H1v42H8.64V80.62H30.18V97.9H37.8v-42H30.18ZM67,55.06c-13.2,0-22.56,9.06-22.56,21.84S53.76,98.74,67,98.74,89.52,89.68,89.52,76.9,80.16,55.06,67,55.06Zm0,37c-8.7,0-14.82-6.24-14.82-15.12S58.26,61.78,67,61.78,81.78,68,81.78,76.9,75.66,92,67,92ZM96.12,97.9H127.5V91.24H103.74V80.5H125V73.84H103.74V62.56H127.5V55.9H96.12Zm58.74-36c6.9,0,11.46,3.9,13.14,9.78h7.86C174.18,61.6,165.48,55,154.86,55c-13.56,0-22.56,8.76-22.56,21.84s9,21.84,22.56,21.84c10.62,0,19.32-6.6,21-16.68H168c-1.68,5.88-6.24,9.78-13.14,9.78-8.88,0-14.76-6-14.76-14.94S146,61.9,154.86,61.9ZM211.62,74H190.08V55.9h-7.62v42h7.62V80.62h21.54V97.9h7.62v-42h-7.62Zm23.52-6.72c-.06-3.66,3.36-6.06,8.52-6.06,5.82,0,8.82,3,9.54,6.78h7.62c-.78-7.74-7.68-13-17.76-13-9.72,0-16.08,5.1-16,12.72.3,17.7,25.86,8.58,26,19,.06,3.42-3.24,5.64-8.34,5.64-7.2,0-11-3.6-11.7-7.8h-7.56c.84,8.64,7.92,14.16,18.9,14.16,10,0,16.62-5.1,16.5-12.72C260.64,69.1,235.32,78,235.14,67.24Zm30-4.68h15V97.9h7.62V62.56h15.06V55.9H265.14ZM307.92,97.9H339.3V91.24H315.54V80.5h21.24V73.84H315.54V62.56H339.3V55.9H307.92ZM342.6,62.56h15V97.9h7.62V62.56h15.06V55.9H342.6Zm40.08,0h15V97.9h7.62V62.56h15.05V55.9H382.68ZM424.26,97.9h31.37V91.24H431.88V80.5h21.23V73.84H431.88V62.56h23.75V55.9H424.26Zm63.41-17c6-1.92,9.66-6.24,9.66-11.94,0-7.86-6.48-13.08-16.26-13.08H462.83v42h7.62V82.06h8.88L491.15,97.9h9.3ZM470.45,75.4V62.56h9.84c6,0,9.54,2.4,9.54,6.42s-3.78,6.42-10.14,6.42Z"/></g></g></svg>